<svg xmlns="http://www.w3.org/2000/svg" width="53.103" height="42.069" viewBox="0 0 53.103 42.069">
  <g id="Group_94" data-name="Group 94" transform="translate(0)">
    <path id="Path_1727" data-name="Path 1727" d="M-895.62,1002.661" transform="translate(926.416 -1001.398)" fill="none" stroke="#707070" stroke-width="1"/>
    <path id="Path_1730" data-name="Path 1730" d="M-985.583,1011.967l-4.5-4.414-20.062,20.062,19.777,19.777,19.777-19.777-8.23-8.23-4.37,4.363,4.37,4.363-10.627,10.8-11.547-11.3Z" transform="translate(1010.146 -1005.521)" fill="#2cb4b3"/>
    <path id="Path_1731" data-name="Path 1731" d="M-995.154,1011.967l4.5-4.414,20.062,20.062-19.777,19.777-19.777-19.777,8.23-8.23,4.37,4.363-4.37,4.363,10.627,10.8,11.547-11.3Z" transform="translate(1023.695 -1005.323)" fill="#008280"/>
    <path id="Path_1732" data-name="Path 1732" d="M54.956,99.949H62.5l-3.693,3.693Z" transform="translate(-32.222 -85.916)" fill="#008280"/>
    <path id="Path_1733" data-name="Path 1733" d="M54.956,99.949H66.342l-5.573,5.573Z" transform="translate(-34.142 -99.949)" fill="#2cb4b3"/>
  </g>
</svg>
